# xmcd CD database file
#
# Track frame offsets:
#	150
#	1028
#	6772
#	13111
#	20152
#	32468
#	42418
#	49867
#	58738
#	69866
#	77831
#	82797
#	87492
#	89125
#	96421
#	103521
#	109753
#	116891
#	119951
#	124017
#	131850
#	138922
#	143970
#	148011
#	152571
#	155845
#	156986
#	168492
#	174408
#
# Disc length: 2383 seconds
#
# Revision: 1
# Processed by: cddbd v1.5.2PL0 Copyright (c) Steve Scherf et al.
# Submitted via: CDex 1.70beta2
#
DISCID=96094d1d
DTITLE=Raeker - Komm, sing und spiel mit uns
DYEAR=2001
DGENRE=Country
TTITLE0=Begrüssung
TTITLE1=Herschaun, hallo
TTITLE2=Das ist gerade, das ist schief
TTITLE3=Meine beiden Hände
TTITLE4=Wo ist der Daumen
TTITLE5=Kleine Schnecke kriecht hinauf
TTITLE6=Ich bin die kleine Schnecke
TTITLE7=Hoch am Himmel, tief auf der Erde
TTITLE8=Leise wie die Katzen schleichen
TTITLE9=Was machen wir so gerne hier im Kreis
TTITLE10=Brüderchen komm tanz mit mir - 1
TTITLE11=Brüderchen komm tanz mit mir - 2
TTITLE12=Mein Häuschen ist nicht gerade
TTITLE13=Wie das Fähnchen auf dem Turme
TTITLE14=Meine Hände sind verschwunden
TTITLE15=Ich bin ein kleiner Hampelmann
TTITLE16=Grosse Uhren machen tick tack
TTITLE17=Hin und her
TTITLE18=Wir machen einen großen Kreis
TTITLE19=Was müssen das für Bäume sein
TTITLE20=Wir Fröschelein
TTITLE21=Ich hol mir eine Leiter
TTITLE22=Himpelchen und Pimpelchen
TTITLE23=Zehn kleine Zappelmänner
TTITLE24=Zeig mir Deine Hände
TTITLE25=Zwei Täubchen
TTITLE26=Taubenhaus
TTITLE27=Bist Du glücklich
TTITLE28=Alle Leut'
EXTD=YEAR: 2001
EXTT0=
EXTT1=
EXTT2=
EXTT3=
EXTT4=
EXTT5=
EXTT6=
EXTT7=
EXTT8=
EXTT9=
EXTT10=
EXTT11=
EXTT12=
EXTT13=
EXTT14=
EXTT15=
EXTT16=
EXTT17=
EXTT18=
EXTT19=
EXTT20=
EXTT21=
EXTT22=
EXTT23=
EXTT24=
EXTT25=
EXTT26=
EXTT27=
EXTT28=
PLAYORDER=
